<svg id="Capa_1" data-name="Capa 1" xmlns="http://www.w3.org/2000/svg" viewBox="0 0 448 512"><defs><style>.cls-1{fill:#fff;}</style></defs><path class="cls-1" d="M400,256H152V152.9c0-39.6,31.7-72.5,71.3-72.9A72.11,72.11,0,0,1,296,152v16a23.94,23.94,0,0,0,24,24h32a23.94,23.94,0,0,0,24-24V152C376,68,307.5-.3,223.5,0S72,69.5,72,153.5V256H48A48,48,0,0,0,0,304V464a48,48,0,0,0,48,48H400a48,48,0,0,0,48-48V304A48,48,0,0,0,400,256ZM264,408a40,40,0,0,1-80,0V360a40,40,0,0,1,80,0Z" transform="translate(0 0)"/></svg>